<?xml version="1.0" encoding="UTF-8"?>
<svg id="_레이어_1" data-name="레이어 1" xmlns="http://www.w3.org/2000/svg" viewBox="0 0 1373.79 230.58">
  <defs>
    <style>
      .cls-1 {
        fill: #fff;
        stroke-width: 0px;
      }
    </style>
  </defs>
  <polygon class="cls-1" points="1257.12 222.27 1275.13 230.58 1373.79 19.25 1355.49 10.68 1257.12 222.27"/>
  <polygon class="cls-1" points="98.37 0 0 211.59 18.01 219.9 116.67 8.57 98.37 0"/>
  <polygon class="cls-1" points="245.21 96.88 195.43 113.06 195.43 60.73 177.25 60.73 177.25 113.06 127.47 96.88 121.86 114.17 171.64 130.35 140.87 172.7 155.57 183.38 186.34 141.03 217.11 183.38 231.81 172.7 201.04 130.35 250.82 114.17 245.21 96.88"/>
  <polygon class="cls-1" points="1243.37 114.17 1237.76 96.88 1187.97 113.06 1187.97 60.73 1169.81 60.73 1169.81 113.06 1120.02 96.88 1114.41 114.17 1164.19 130.35 1133.43 172.7 1148.13 183.38 1178.9 141.03 1209.66 183.38 1224.37 172.7 1193.6 130.35 1243.37 114.17"/>
  <path class="cls-1" d="m451.06,130.09c-6.31-37.33-35.11-50.63-59.96-50.63-18.05,0-34.84,6.62-47.29,18.64-14.24,13.75-21.77,33.65-21.77,57.54,0,50.26,36.12,72.75,71.92,72.75,22.26,0,43.14-8.46,54.47-22.08l.38-.46-13.15-12.88-.44.5c-9.63,10.78-26.8,15.61-39.55,15.61-35.62,0-49.56-27.48-50.74-51.3h107.06l.05-.58c.83-9.2.51-18.32-.97-27.11h0Zm-105.34,9.37c4.66-32.85,29.67-41.65,43.81-41.65,10.59,0,20.73,4.35,28.55,12.25,7.85,7.93,12.35,18.61,12.41,29.4h-84.77Z"/>
  <path class="cls-1" d="m1041.78,130.09h0c-6.31-37.33-35.11-50.63-59.96-50.63-18.04,0-34.84,6.62-47.29,18.64-14.24,13.75-21.77,33.65-21.77,57.54,0,50.26,36.12,72.75,71.91,72.75,22.26,0,43.14-8.46,54.47-22.08l.38-.46-13.15-12.88-.44.5c-9.63,10.78-26.8,15.61-39.54,15.61-35.62,0-49.56-27.48-50.75-51.3h107.07l.05-.58c.83-9.23.5-18.35-.97-27.11m-105.34,9.37c4.66-32.85,29.68-41.65,43.82-41.65,10.59,0,20.73,4.35,28.54,12.25,7.85,7.93,12.35,18.61,12.41,29.4h-84.77Z"/>
  <polygon class="cls-1" points="548.19 14.64 497.71 14.64 497.71 33.79 524.53 33.79 524.53 203.84 495.85 203.84 495.85 222.97 576.63 222.97 576.63 203.84 548.19 203.84 548.19 14.64"/>
  <path class="cls-1" d="m662.44,34.27c9.16,0,16.61-7.38,16.61-16.46s-7.45-16.48-16.61-16.48-16.64,7.41-16.64,16.51,7.47,16.43,16.64,16.43"/>
  <polygon class="cls-1" points="673.7 62.59 623.98 62.59 623.98 81.98 650.06 81.98 650.06 203.84 622.13 203.84 622.13 222.97 698.75 222.97 698.75 203.84 673.7 203.84 673.7 62.59"/>
  <path class="cls-1" d="m811.38,99.48c20.86,0,36.57,14.79,39.53,17.77,1.38,1.38,3.83,4.76,3.85,4.79l.48.66,14.16-16.56-.27-.4c-11.18-16.37-32.77-26.54-56.34-26.54-42.95,0-75.34,32.01-75.34,74.45s32.47,75,73.93,75c21.26,0,42.54-8.71,55.54-22.72l.39-.42-13.73-15.99-.48.55c-8.95,10.13-24.96,16.93-39.85,16.93-28.87,0-51.49-24.45-51.49-55.66,0-33.69,25.57-51.87,49.62-51.87"/>
</svg>