<svg id="TUeV_NORD" data-name="TUeV NORD" xmlns="http://www.w3.org/2000/svg" class="w-auto h-14 text-blue 2xl:h-16 3xl:h-20" viewBox="0 0 227.51591 113.63583"> <rect x="0" y=".125" width="227.51591" height="113.38583" fill="currentColor"></rect> <path d="M144.07954,74.41708c-6.00425,0-10.7088,4.70319-10.7088,10.7088,0,6.00288,4.70455,10.7088,10.7088,10.7088,6.0056,0,10.70879-4.70592,10.70879-10.7088,0-6.00561-4.70319-10.7088-10.70879-10.7088m0,25.76719c-8.67599,0-15.47342-6.6145-15.47342-15.05839,0-8.44526,6.79743-15.0584,15.47342-15.0584s15.47206,6.61314,15.47206,15.0584c0,8.4439-6.79608,15.05839-15.47206,15.05839m-83.75498-13.27678v-15.98265h6.88481v17.06391c0,7.09233-5.66158,12.17095-13.2563,12.17095-7.18107,0-13.2563-4.63629-13.2563-12.17095v-17.06391h6.88618v15.98265c0,4.20488,2.72088,6.69368,6.37012,6.69368,3.58916,0,6.37149-2.63624,6.37149-6.69368m-2.92567-15.98265h-6.88345v6.88481h6.88345v-6.88481Zm-19.7807,0v6.19811h-8.28006v22.20123h-6.88481v-22.20123H14.17323v-6.19811h23.44496Zm49.84015,28.39934l10.5477-28.39934h-7.65889l-6.80153,19.651-6.80154-19.651h-7.65889l10.5477,28.39934h7.82545Zm37.65144,0h-4.06017l-15.41881-19.94043v19.94043h-4.74551v-28.39934h3.97962l15.49799,19.94179v-19.94179h4.74687v28.39934Zm60.03153,0h-5.19603l-6.02473-10.7989h-6.16534v10.7989h-4.74687v-28.39934h12.01394c5.24109,0,9.19612,3.78303,9.19612,8.80022,0,5.62881-4.57213,7.89644-5.54688,8.3142l6.46978,11.28492Zm-17.3861-15.1444h7.26707c2.53931,0,4.45334-1.91541,4.45334-4.45472s-1.91403-4.45472-4.45334-4.45472h-7.26707v8.90944Zm31.16664,15.16761h-10.0057v-28.44576h10.0057c7.81726,0,14.42084,6.51347,14.42084,14.22288,0,7.70804-6.60358,14.22288-14.42084,14.22288m-5.25882-4.34687h5.25882c5.33256,0,9.67396-4.43014,9.67396-9.87601s-4.34139-9.87465-9.67396-9.87465h-5.25882v19.75066Z" fill="#fff"></path> </svg>